<?xml version="1.0" standalone="no"?><!DOCTYPE svg PUBLIC "-//W3C//DTD SVG 1.1//EN" "http://www.w3.org/Graphics/SVG/1.1/DTD/svg11.dtd"><svg t="1587621406860" class="icon" viewBox="0 0 1433 1024" version="1.1" xmlns="http://www.w3.org/2000/svg" p-id="2907" xmlns:xlink="http://www.w3.org/1999/xlink" width="279.8828125" height="200"><defs><style type="text/css"></style></defs><path d="M964.1984 167.8336a51.2 51.2 0 0 1 72.3968-72.3968l380.1088 380.1088a51.2 51.2 0 0 1 0 72.3968l-380.1088 380.1088a51.2 51.2 0 1 1-72.3968-72.3968l334.848-334.848a12.8 12.8 0 0 0 0-18.1248l-334.848-334.848zM133.0176 520.8064l334.848 334.848a51.2 51.2 0 1 1-72.2944 72.3968L15.36 547.9424a51.2 51.2 0 0 1 0-72.3968L395.5712 95.4368a51.2 51.2 0 0 1 72.3968 72.3968L133.12 502.6816a12.8 12.8 0 0 0 0 18.1248zM826.368 37.0688a51.2 51.2 0 0 1 38.2976 61.44L668.0576 949.76a51.2 51.2 0 1 1-99.7376-23.04L764.928 75.4688a51.2 51.2 0 0 1 61.3376-38.4z" p-id="2908"></path></svg>