<svg t="1584692384205" class="icon" viewBox="0 0 1024 1024" version="1.1" xmlns="http://www.w3.org/2000/svg" p-id="19449" width="200" height="200"><path d="M743.8 253.2l65.1 65.1-353.4 353.4-103.7 38.6 38.6-103.7 353.4-353.4m0-70.7L347.4 578.9l-80.5 216.3 216.3-80.5 396.4-396.4-135.8-135.8zM791.1 134.1c41.2-41.2 105.2-44.1 142.8-6.5s34.8 101.6-6.5 142.8" fill="#999999" p-id="19450"></path><path d="M877.6 514v363.6H148.2V241.8h427.9v-50H145.3c-25.9 0-47.1 21.2-47.1 47.1v641.6c0 25.9 21.2 47.1 47.1 47.1h735.2c25.9 0 47.1-21.2 47.1-47.1V514h-50z" fill="#999999" p-id="19451"></path></svg>