<?xml version="1.0" standalone="no"?><!DOCTYPE svg PUBLIC "-//W3C//DTD SVG 1.1//EN" "http://www.w3.org/Graphics/SVG/1.1/DTD/svg11.dtd"><svg t="1587692642948" class="icon" viewBox="0 0 1024 1024" version="1.1" xmlns="http://www.w3.org/2000/svg" p-id="1980" xmlns:xlink="http://www.w3.org/1999/xlink" width="200" height="200"><defs><style type="text/css"></style></defs><path d="M288 224h448a64 64 0 0 1 64 64v320a64 64 0 0 1-64 64H288a64 64 0 0 1-64-64V288a64 64 0 0 1 64-64z m0 64v320h448V288H288zM256 736h512a32 32 0 0 1 0 64H256a32 32 0 0 1 0-64z m256-288a32 32 0 0 1 32 32v32a32 32 0 1 1-64 0v-32a32 32 0 0 1 32-32z m128-32a32 32 0 0 1 32 32v64a32 32 0 0 1-64 0v-64a32 32 0 0 1 32-32z m-256-64a32 32 0 0 1 32 32v128a32 32 0 1 1-64 0v-128a32 32 0 0 1 32-32z" p-id="1981"></path></svg>