<svg t="1584691521404" class="icon" viewBox="0 0 1062 1024" version="1.1" xmlns="http://www.w3.org/2000/svg" p-id="11864" width="200" height="200"><path d="M0 0m98.282574 0l245.699918 0q98.282574 0 98.282574 98.282574l0 245.699918q0 98.282574-98.282574 98.282574l-245.699918 0q-98.282574 0-98.282574-98.282574l0-245.699918q0-98.282574 98.282574-98.282574Z" p-id="11865"></path><path d="M0 548.028637m98.282574 0l245.699918 0q98.282574 0 98.282574 98.282574l0 245.699919q0 98.282574-98.282574 98.282574l-245.699918 0q-98.282574 0-98.282574-98.282574l0-245.699919q0-98.282574 98.282574-98.282574Z" p-id="11866"></path><path d="M562.456274 0m98.282574 0l245.699919 0q98.282574 0 98.282574 98.282574l0 245.699918q0 98.282574-98.282574 98.282574l-245.699919 0q-98.282574 0-98.282574-98.282574l0-245.699918q0-98.282574 98.282574-98.282574Z" p-id="11867"></path><path d="M1054.468667 977.495204l-96.014816-96.014815a213.299643 213.299643 0 1 0-33.886048 43.11348l91.427165 91.427166a27.241776 27.241776 0 0 0 38.525831-38.525831z m-279.286206-45.707066a160.307076 160.307076 0 1 1 160.307076-160.241911 160.241911 160.241911 0 0 1-160.307076 160.241911z" p-id="11868"></path></svg>