<?xml version="1.0" standalone="no"?><!DOCTYPE svg PUBLIC "-//W3C//DTD SVG 1.1//EN" "http://www.w3.org/Graphics/SVG/1.1/DTD/svg11.dtd"><svg t="1587621500461" class="icon" viewBox="0 0 1024 1024" version="1.1" xmlns="http://www.w3.org/2000/svg" p-id="3345" xmlns:xlink="http://www.w3.org/1999/xlink" width="200" height="200"><defs><style type="text/css"></style></defs><path d="M678.6 493.4L740 609.1H283l61.4-115.7h334.2m17.5-58.5H326.9c-10.9 0-20.8 6-25.9 15.7l-92.4 174.1c-4.8 9.1-4.5 20 0.8 28.8s14.8 14.2 25.1 14.2h554.1c10.3 0 19.8-5.4 25.1-14.2 5.3-8.8 5.6-19.8 0.8-28.8L722 450.6c-5-9.7-15-15.7-25.9-15.7zM511.5 161.1c2.3 0 4.6 0.4 6.7 1.3l98.2 184.8H406.6l98-184.5c2.2-1.2 4.5-1.7 6.9-1.6m0-58.5c-23.2-0.8-45 10.9-57.3 30.6l-122 229.7c-4.8 9.1-4.4 20 0.9 28.7 5.3 8.8 14.8 14.1 25 14.1h307.2c10.2 0 19.7-5.4 25-14.1 5.3-8.8 5.6-19.7 0.9-28.7L568.9 133.1c-12.3-19.7-34.2-31.3-57.4-30.5zM802 755.4l57.3 107.8H163.7L221 755.5h581m17.7-58.5H203.3c-10.8 0-20.7 6-25.7 15.5l-68.8 129.2c-21.5 36.1 9.7 80 57.3 80h690.7c47.7 0 78.7-43.9 57.3-80l-68.8-129.3c-5.1-9.5-15-15.5-25.7-15.5v0.1z m0 0" p-id="3346"></path></svg>