<svg class="icon" style="width: 1.0068359375em; height: 1em;vertical-align: middle;fill: currentColor;overflow: hidden;" viewBox="0 0 1031 1024" version="1.1" xmlns="http://www.w3.org/2000/svg" p-id="1870"><path d="M1022.13051 494.546876l-486.315589-486.343492c-10.965748-10.937846-30.079075-10.909943-41.016921 0l-486.343492 486.343492c-11.272678 11.272678-11.272678 29.632633 0 40.90531 10.937846 10.937846 29.995367 10.937846 40.933213 0l85.437967-85.46587 0 532.159672c0 23.075506 18.750592 41.854001 41.826098 41.854001l677.281444 0c23.075506 0 41.854001-18.750592 41.854001-41.854001l0-532.159672 85.46587 85.46587c10.937846 10.937846 29.967465 10.937846 40.90531 0 5.468923-5.468923 8.482411-12.723616 8.482411-20.452655C1030.612921 507.298395 1027.599433 500.015799 1022.13051 494.546876zM837.9171 925.726794c0 26.033189-21.178125 47.211313-47.211313 47.211313l-550.798653 0c-26.033189 0-47.18341-21.178125-47.18341-47.211313l0-533.554805 322.61064-322.61064 322.61064 322.61064L837.9171 925.726794 837.9171 925.726794z" p-id="1871"></path></svg>