<?xml version="1.0" standalone="no"?><!DOCTYPE svg PUBLIC "-//W3C//DTD SVG 1.1//EN" "http://www.w3.org/Graphics/SVG/1.1/DTD/svg11.dtd"><svg t="1587621203721" class="icon" viewBox="0 0 1024 1024" version="1.1" xmlns="http://www.w3.org/2000/svg" p-id="1411" xmlns:xlink="http://www.w3.org/1999/xlink" width="200" height="200"><defs><style type="text/css"></style></defs><path d="M697.6 614.4H326.4c-32 0-64 25.6-64 64 0 32 25.6 64 64 64h364.8c32 0 64-25.6 64-64 0-32-25.6-64-57.6-64zM582.4 704c-12.8 0-25.6-12.8-25.6-25.6s12.8-25.6 25.6-25.6 25.6 12.8 25.6 25.6-12.8 25.6-25.6 25.6z m89.6 0c-12.8 0-25.6-12.8-25.6-25.6s12.8-25.6 25.6-25.6 25.6 12.8 25.6 25.6S691.2 704 672 704z m25.6-288H326.4c-32 0-64 25.6-64 64 0 32 25.6 64 64 64h364.8c32 0 64-25.6 64-64s-25.6-64-57.6-64z m-115.2 89.6c-12.8 0-25.6-12.8-25.6-25.6s12.8-25.6 25.6-25.6S608 467.2 608 480s-12.8 25.6-25.6 25.6z m89.6 0c-12.8 0-25.6-12.8-25.6-25.6s12.8-25.6 25.6-25.6 32 12.8 32 25.6-12.8 25.6-32 25.6z m25.6 307.2H326.4c-32 0-64 25.6-64 64 0 32 25.6 64 64 64h364.8c32 0 64-25.6 64-64 0-32-25.6-64-57.6-64z m-115.2 89.6c-12.8 0-25.6-12.8-25.6-25.6s12.8-25.6 25.6-25.6S608 864 608 876.8s-12.8 25.6-25.6 25.6z m89.6 0c-12.8 0-25.6-12.8-25.6-25.6s12.8-25.6 25.6-25.6 25.6 12.8 25.6 25.6-6.4 25.6-25.6 25.6z" p-id="1412"></path><path d="M915.2 422.4v-25.6c0-108.8-89.6-198.4-198.4-198.4h-32C633.6 128 544 83.2 454.4 83.2c-134.4 0-249.6 96-275.2 230.4-96 38.4-160 134.4-160 236.8 0 128 96 236.8 217.6 256h6.4c12.8 0 19.2-6.4 25.6-19.2 0-12.8-6.4-25.6-19.2-25.6C147.2 748.8 70.4 659.2 70.4 550.4c0-89.6 57.6-172.8 140.8-198.4l12.8-6.4v-12.8c19.2-115.2 115.2-198.4 230.4-198.4 76.8 0 153.6 38.4 198.4 108.8l6.4 12.8 19.2-6.4c12.8 0 25.6-6.4 38.4-6.4 83.2 0 153.6 70.4 153.6 153.6 0 12.8 0 19.2-6.4 32l-6.4 19.2 12.8 6.4c51.2 25.6 76.8 76.8 76.8 134.4 0 83.2-70.4 153.6-153.6 153.6-12.8 0-25.6 12.8-25.6 25.6s12.8 25.6 25.6 25.6C902.4 793.6 992 704 992 588.8c12.8-64-19.2-128-76.8-166.4z" p-id="1413"></path></svg>