<?xml version="1.0" standalone="no"?><!DOCTYPE svg PUBLIC "-//W3C//DTD SVG 1.1//EN" "http://www.w3.org/Graphics/SVG/1.1/DTD/svg11.dtd"><svg t="1588212168981" class="icon" viewBox="0 0 1024 1024" version="1.1" xmlns="http://www.w3.org/2000/svg" p-id="2030" xmlns:xlink="http://www.w3.org/1999/xlink" width="200" height="200"><defs><style type="text/css"></style></defs><path d="M795.032884 0H228.532134a152.934733 152.934733 0 0 0-151.732134 153.523238v716.441779a152.781209 152.781209 0 0 0 151.732134 153.523239h566.50075a152.781209 152.781209 0 0 0 151.732133-153.523239v-716.441779a152.934733 152.934733 0 0 0-151.732133-153.523238z m-657.591205 869.965017v-716.441779a91.832484 91.832484 0 0 1 91.090455-92.113943h63.968016v900.669666h-63.968016a91.678961 91.678961 0 0 1-91.090455-92.113944z m748.681659 0a91.678961 91.678961 0 0 1-91.090454 92.113944H353.397701V61.409295h244.357821v156.337831a13.356522 13.356522 0 0 0 21.749126 10.490755l37.613193-30.448776a13.151824 13.151824 0 0 1 16.887556 0L711.362719 228.237881a13.510045 13.510045 0 0 0 22.004997-10.490755V61.409295h61.665168a91.832484 91.832484 0 0 1 91.090454 92.113943v716.441779z" p-id="2031"></path></svg>