<?xml version="1.0" standalone="no"?><!DOCTYPE svg PUBLIC "-//W3C//DTD SVG 1.1//EN" "http://www.w3.org/Graphics/SVG/1.1/DTD/svg11.dtd"><svg t="1588211855370" class="icon" viewBox="0 0 1024 1024" version="1.1" xmlns="http://www.w3.org/2000/svg" p-id="3100" xmlns:xlink="http://www.w3.org/1999/xlink" width="200" height="200"><defs><style type="text/css"></style></defs><path d="M994.762105 54.703158H28.429474C11.317895 54.703158 0 65.751579 0 82.189474v860.16c0 16.572632 11.317895 27.621053 28.429474 27.621052h966.332631c17.111579 0 28.429474-11.048421 28.429474-27.621052V82.189474c0-16.437895-11.452632-27.486316-28.429474-27.486316zM968.892632 111.157895v551.882105l-914.728421-1.347368V109.810526l914.728421 1.347369zM54.164211 914.863158V716.934737h914.863157V914.863158h-914.863157z m0 0" fill="" p-id="3101"></path><path d="M560.370526 772.042105H147.402105c-14.686316 0-29.507368 13.743158-29.507368 27.621053 0 13.743158 14.686316 27.621053 29.507368 27.621053h412.968421c14.686316 0 29.507368-13.743158 29.507369-27.621053 0-13.743158-14.686316-27.621053-29.507369-27.621053z m353.953685 0H737.414737c-14.686316 0-29.507368 11.048421-29.507369 27.621053 0 13.743158 14.686316 27.621053 29.507369 27.621053h176.909474c14.686316 0 29.507368-13.743158 29.507368-27.621053 0-16.572632-14.686316-27.621053-29.507368-27.621053zM147.402105 440.993684h118.029474c11.856842 0 20.614737-5.524211 26.543158-16.572631l91.486316-171.11579L563.334737 590.012632c5.928421 8.218947 14.686316 16.572632 26.543158 16.572631 11.856842 0 20.614737-5.524211 26.543158-16.572631L737.414737 363.789474l32.471579 60.766315c5.928421 8.218947 14.686316 16.572632 26.543158 16.572632h118.029473c17.650526 0 29.507368-11.048421 29.507369-27.621053s-11.856842-27.621053-29.507369-27.621052h-100.24421L764.092632 292.109474c-8.892632-19.267368-44.193684-19.267368-53.086316 0l-120.993684 226.223158-180.008421-336.707369c-8.892632-19.267368-44.193684-19.267368-53.086316 0l-109.136842 204.261053h-100.244211c-17.650526 0-29.507368 11.048421-29.507368 27.621052-0.134737 16.437895 11.722105 27.486316 29.372631 27.486316z m0 0" fill="" p-id="3102"></path></svg>