<?xml version="1.0" standalone="no"?><!DOCTYPE svg PUBLIC "-//W3C//DTD SVG 1.1//EN" "http://www.w3.org/Graphics/SVG/1.1/DTD/svg11.dtd"><svg t="1585206823462" class="icon" viewBox="0 0 1126 1024" version="1.1" xmlns="http://www.w3.org/2000/svg" p-id="1840" xmlns:xlink="http://www.w3.org/1999/xlink" width="219.921875" height="200"><defs><style type="text/css"></style></defs><path d="M341.333333 597.333333v-85.333333h256v85.333333H341.333333z m0 128v-85.333333h256v85.333333H341.333333zM170.666667 170.666667v640.085333h426.709333v85.333333h-469.333333a42.666667 42.666667 0 0 1-42.709334-42.666666V128a42.666667 42.666667 0 0 1 42.666667-42.666667h682.752a42.666667 42.666667 0 0 1 42.666667 42.666667v320h-85.333334V170.666667H170.666667z m249.173333 143.616L469.333333 256l49.493334 58.282667L597.333333 337.493333l-48 59.221334L548.437333 469.333333 469.333333 447.616 390.229333 469.333333l-0.853333-72.618666L341.333333 337.493333l78.506667-23.210666z" fill="#1768E4" p-id="1841"></path><path d="M991.786667 673.877333l-150.869334-150.826666a42.624 42.624 0 0 0-60.330666 0l-150.869334 150.826666 60.330667 60.373334 78.037333-78.08v282.581333h85.333334V656.213333l78.037333 78.037334 60.330667-60.373334z" fill="#8BB3F1" p-id="1842"></path></svg>