<?xml version="1.0" standalone="no"?><!DOCTYPE svg PUBLIC "-//W3C//DTD SVG 1.1//EN" "http://www.w3.org/Graphics/SVG/1.1/DTD/svg11.dtd"><svg t="1584690172932" class="icon" viewBox="0 0 1024 1024" version="1.1" xmlns="http://www.w3.org/2000/svg" p-id="3276" xmlns:xlink="http://www.w3.org/1999/xlink" width="200" height="200"><defs><style type="text/css"></style></defs><path d="M512 63.001l389.001 167.001v253.001c0 58-9.844 114.343-29.5 169.001-19.671 54.672-46.5 104-80.5 148-35.344 46-76.672 85.001-124 117.001-47.344 32-99.001 54.656-155.001 68-56-13.344-107.671-36-155.001-68-47.344-32-88.672-71.001-124-117.001-34-44-60.844-93.328-80.5-148-19.671-54.656-29.5-111.001-29.5-169.001V230.001L512 63.002z m0 460V154L209.001 285.001v238H512v374c40.656-11.328 78-29.156 112-53.5 34-24.329 64-53.156 90-86.5 26.656-32.656 48.656-68.828 66-108.5 17.328-39.657 29.001-81.5 35.001-125.5H512z" p-id="3277"></path></svg>