<svg t="1584693188381" class="icon" viewBox="0 0 1024 1024" version="1.1" xmlns="http://www.w3.org/2000/svg" p-id="29132" width="200" height="200"><path d="M736 288c-0.16-123.42-100.38-223.42-224-223.42S288.16 164.58 288 288zM64 544h160v64H64zM64.004 850.745l183.763-183.763 45.254 45.255L109.258 896zM109.263 256.001L301.83 448.568l-45.255 45.254L64.008 301.256zM960 608H800v-64h160zM914.75 896L730.985 712.237l45.255-45.254 183.763 183.762zM960.002 301.26L767.436 493.826l-45.255-45.255 192.566-192.566z" p-id="29133"></path><path d="M224 384v320c0 140.8 115.2 256 256 256V320H288a64.19 64.19 0 0 0-64 64z m512-64H544v640c140.8 0 256-115.2 256-256V384a64.19 64.19 0 0 0-64-64z" p-id="29134"></path></svg>