<?xml version="1.0" standalone="no"?><!DOCTYPE svg PUBLIC "-//W3C//DTD SVG 1.1//EN" "http://www.w3.org/Graphics/SVG/1.1/DTD/svg11.dtd"><svg t="1585646917536" class="icon" viewBox="0 0 1024 1024" version="1.1" xmlns="http://www.w3.org/2000/svg" p-id="5420" xmlns:xlink="http://www.w3.org/1999/xlink" width="200" height="200"><defs><style type="text/css"></style></defs><path d="M503.818 426.701v75.186h21.515c29.173 0 43.744-12.686 43.744-38.044 0-24.77-14.422-37.14-43.293-37.14h-21.966z m289.35-97.534v-209.97c0-30.935-25.07-55.992-55.992-55.992H289.233c-30.921 0-55.992 25.056-55.992 55.992v209.97H128.794v349.95H233.24v223.968c0 30.922 25.07 55.992 55.992 55.992h447.943c30.922 0 55.992-25.07 55.992-55.992V679.117h103.43v-349.95h-103.43z m-55.991-195.972v195.972H289.24l-0.007-195.972h447.944zM621.269 461.888c0 23.854-8.75 42.979-26.246 57.36-17.497 14.393-39.37 21.284-65.642 20.682H503.82v81.2h-49.622V388.206h80.16c57.932 0 86.912 24.565 86.912 73.68z m-359.233 105.86l-17.14 53.381h-53.84l85.259-232.921h58.35l83.605 232.921h-54.133l-17.442-53.381h-84.659zM513.21 931.08c-15.46 0-28.01-12.536-28.01-27.996s12.55-27.995 28.01-27.995 27.996 12.535 27.996 27.995-12.536 27.996-27.996 27.996z m223.968-83.988H289.233l0.007-167.976h447.936v167.976z m53.777-327.846c-17.484 14.394-39.37 21.285-65.63 20.683h-25.562v81.2H650.14V388.206h80.133c57.96 0 86.914 24.564 86.914 73.68 0 23.855-8.737 42.98-26.234 57.36zM721.717 426.7h-21.954v75.186h21.488c29.173 0 43.772-12.686 43.772-38.044 0.001-24.77-14.436-37.142-43.306-37.142z m-416.823 1.655h-1.368c-0.6 6.807-1.94 13.383-4.046 19.699l-26.622 81.35h62.11l-26.465-80.749c-1.71-5.113-2.913-11.88-3.61-20.3z" p-id="5421"></path></svg>