<svg t="1584693116223" class="icon" viewBox="0 0 1024 1024" version="1.1" xmlns="http://www.w3.org/2000/svg" p-id="28115" width="200" height="200"><path d="M512 0C230.4 0 0 230.4 0 512s230.4 512 512 512c281.6 0 512-230.4 512-512S793.6 0 512 0L512 0zM512 960c-243.2 0-448-198.4-448-448 0-243.2 198.4-448 448-448 243.2 0 448 198.4 448 448C960 755.2 755.2 960 512 960L512 960z" p-id="28116"></path><path d="M780.8 569.6c6.4-19.2 6.4-38.4 6.4-57.6 0-153.6-121.6-275.2-275.2-275.2C358.4 236.8 236.8 358.4 236.8 512l0 6.4C204.8 544 185.6 576 185.6 620.8c0 70.4 57.6 128 128 128 12.8 0 25.6 0 44.8-6.4C403.2 768 454.4 787.2 512 787.2c76.8 0 147.2-32 192-83.2 19.2 19.2 38.4 38.4 70.4 38.4 51.2 0 89.6-38.4 89.6-89.6C864 608 825.6 569.6 780.8 569.6L780.8 569.6zM512 716.8c-38.4 0-70.4-12.8-96-25.6 12.8-19.2 25.6-44.8 25.6-76.8 0-70.4-57.6-128-128-128L307.2 486.4C313.6 390.4 403.2 307.2 512 307.2c115.2 0 204.8 89.6 204.8 204.8S627.2 716.8 512 716.8L512 716.8z" p-id="28117"></path></svg>