<?xml version="1.0" standalone="no"?><!DOCTYPE svg PUBLIC "-//W3C//DTD SVG 1.1//EN" "http://www.w3.org/Graphics/SVG/1.1/DTD/svg11.dtd"><svg t="1588211702763" class="icon" viewBox="0 0 1024 1024" version="1.1" xmlns="http://www.w3.org/2000/svg" p-id="2028" xmlns:xlink="http://www.w3.org/1999/xlink" width="200" height="200"><defs><style type="text/css"></style></defs><path d="M374.825596 926.435094H167.555024a93.761776 93.761776 0 0 1-91.421388-91.421388V152.351915a93.761776 93.761776 0 0 1 91.421388-91.421388h481.534737a93.761776 93.761776 0 0 1 91.421388 91.421388V329.124312a30.498175 30.498175 0 1 0 60.923213 0V152.351915A150.881859 150.881859 0 0 0 649.089761 0.007314H167.555024A150.881859 150.881859 0 0 0 15.210423 152.351915v682.588654A150.881859 150.881859 0 0 0 167.555024 987.358308h207.270572a30.498175 30.498175 0 0 0 0-60.923214z" p-id="2029"></path><path d="M630.732346 243.773304A26.183086 26.183086 0 0 0 606.377688 219.418646H173.625405c-12.213897 6.07038-24.354658 12.213897-24.354658 24.354658a26.183086 26.183086 0 0 0 24.354658 24.354657h432.752283a22.306819 22.306819 0 0 0 24.354658-24.354657z" p-id="2030"></path><path d="M173.625405 371.763247a24.354658 24.354658 0 0 0 0 48.782453h219.411332a24.354658 24.354658 0 0 0 0-48.782453z" p-id="2031"></path><path d="M825.78902 688.739485h-91.421388v-91.421389a30.498175 30.498175 0 1 0-60.923213 0v91.421389H582.02303a30.498175 30.498175 0 1 0 0 60.923213H673.444419v91.421388a30.498175 30.498175 0 0 0 60.923213 0v-91.421388h91.421388a30.498175 30.498175 0 1 0 0-60.923213z" p-id="2032"></path><path d="M703.942594 414.47532a304.76234 304.76234 0 1 0 304.76234 304.76234 301.763719 301.763719 0 0 0-304.76234-304.76234z m0 548.52833a243.76599 243.76599 0 1 1 243.76599-243.76599 244.497361 244.497361 0 0 1-243.76599 243.76599z" p-id="2033"></path></svg>